<mxfile host="app.diagrams.net" agent="Mozilla/5.0 (Windows NT 10.0; Win64; x64; rv:141.0) Gecko/20100101 Firefox/141.0" version="28.0.9">
  <diagram name="Page-1" id="eyIaYFwyrjE0HxkNx1w9">
    <mxGraphModel dx="1426" dy="826" grid="1" gridSize="10" guides="1" tooltips="1" connect="1" arrows="1" fold="1" page="1" pageScale="1" pageWidth="850" pageHeight="1100" math="0" shadow="0">
      <root>
        <mxCell id="0" />
        <mxCell id="1" parent="0" />
        <mxCell id="3Iv7wCbymawAUKEkxigc-1" value="USG" style="rounded=1;whiteSpace=wrap;html=1;" vertex="1" parent="1">
          <mxGeometry x="340" y="80" width="120" height="60" as="geometry" />
        </mxCell>
        <mxCell id="3Iv7wCbymawAUKEkxigc-2" value="C-3PO" style="shape=cylinder3;whiteSpace=wrap;html=1;boundedLbl=1;backgroundOutline=1;size=15;" vertex="1" parent="1">
          <mxGeometry x="20" y="140" width="60" height="80" as="geometry" />
        </mxCell>
        <mxCell id="3Iv7wCbymawAUKEkxigc-3" value="R2D2" style="shape=cylinder3;whiteSpace=wrap;html=1;boundedLbl=1;backgroundOutline=1;size=15;" vertex="1" parent="1">
          <mxGeometry x="20" y="260" width="60" height="80" as="geometry" />
        </mxCell>
        <mxCell id="3Iv7wCbymawAUKEkxigc-6" value="&lt;div&gt;EdgeSwitch 10XP&lt;/div&gt;" style="rounded=0;whiteSpace=wrap;html=1;" vertex="1" parent="1">
          <mxGeometry x="500" y="200" width="120" height="60" as="geometry" />
        </mxCell>
        <mxCell id="3Iv7wCbymawAUKEkxigc-7" value="&lt;div&gt;SWITCH&lt;/div&gt;&lt;div&gt;Mikrotik R3011&lt;/div&gt;" style="rounded=0;whiteSpace=wrap;html=1;" vertex="1" parent="1">
          <mxGeometry x="140" y="200" width="120" height="60" as="geometry" />
        </mxCell>
        <mxCell id="3Iv7wCbymawAUKEkxigc-8" value="DarthMint" style="shape=cylinder3;whiteSpace=wrap;html=1;boundedLbl=1;backgroundOutline=1;size=15;" vertex="1" parent="1">
          <mxGeometry x="20" y="380" width="60" height="80" as="geometry" />
        </mxCell>
        <mxCell id="3Iv7wCbymawAUKEkxigc-9" value="Internet" style="ellipse;shape=cloud;whiteSpace=wrap;html=1;" vertex="1" parent="1">
          <mxGeometry x="540" width="170" height="120" as="geometry" />
        </mxCell>
        <mxCell id="3Iv7wCbymawAUKEkxigc-10" value="Camera" style="shape=hexagon;perimeter=hexagonPerimeter2;whiteSpace=wrap;html=1;fixedSize=1;" vertex="1" parent="1">
          <mxGeometry x="530" y="320" width="90" height="60" as="geometry" />
        </mxCell>
        <mxCell id="3Iv7wCbymawAUKEkxigc-11" value="Camera" style="shape=hexagon;perimeter=hexagonPerimeter2;whiteSpace=wrap;html=1;fixedSize=1;" vertex="1" parent="1">
          <mxGeometry x="650" y="320" width="90" height="60" as="geometry" />
        </mxCell>
        <mxCell id="3Iv7wCbymawAUKEkxigc-12" value="&lt;div&gt;Outside AP&lt;/div&gt;&lt;div&gt;Nanostation&lt;/div&gt;" style="ellipse;whiteSpace=wrap;html=1;aspect=fixed;" vertex="1" parent="1">
          <mxGeometry x="750" y="210" width="80" height="80" as="geometry" />
        </mxCell>
        <mxCell id="3Iv7wCbymawAUKEkxigc-13" value="Unifi AP" style="ellipse;whiteSpace=wrap;html=1;aspect=fixed;" vertex="1" parent="1">
          <mxGeometry x="130" y="380" width="80" height="80" as="geometry" />
        </mxCell>
        <mxCell id="3Iv7wCbymawAUKEkxigc-14" value="Unifi AP" style="ellipse;whiteSpace=wrap;html=1;aspect=fixed;" vertex="1" parent="1">
          <mxGeometry x="260" y="380" width="80" height="80" as="geometry" />
        </mxCell>
        <mxCell id="3Iv7wCbymawAUKEkxigc-15" value="" style="endArrow=none;html=1;rounded=0;entryX=0.16;entryY=0.55;entryDx=0;entryDy=0;entryPerimeter=0;exitX=1;exitY=0.5;exitDx=0;exitDy=0;" edge="1" parent="1" source="3Iv7wCbymawAUKEkxigc-1" target="3Iv7wCbymawAUKEkxigc-9">
          <mxGeometry width="50" height="50" relative="1" as="geometry">
            <mxPoint x="400" y="450" as="sourcePoint" />
            <mxPoint x="450" y="400" as="targetPoint" />
            <Array as="points" />
          </mxGeometry>
        </mxCell>
        <mxCell id="3Iv7wCbymawAUKEkxigc-16" value="" style="endArrow=none;html=1;rounded=0;entryX=0.13;entryY=0.77;entryDx=0;entryDy=0;entryPerimeter=0;exitX=1;exitY=0.5;exitDx=0;exitDy=0;" edge="1" parent="1" source="3Iv7wCbymawAUKEkxigc-1" target="3Iv7wCbymawAUKEkxigc-9">
          <mxGeometry width="50" height="50" relative="1" as="geometry">
            <mxPoint x="400" y="450" as="sourcePoint" />
            <mxPoint x="450" y="400" as="targetPoint" />
          </mxGeometry>
        </mxCell>
        <mxCell id="3Iv7wCbymawAUKEkxigc-17" value="" style="endArrow=none;html=1;rounded=0;entryX=0;entryY=1;entryDx=0;entryDy=0;exitX=1;exitY=0;exitDx=0;exitDy=0;" edge="1" parent="1" source="3Iv7wCbymawAUKEkxigc-7" target="3Iv7wCbymawAUKEkxigc-1">
          <mxGeometry width="50" height="50" relative="1" as="geometry">
            <mxPoint x="400" y="450" as="sourcePoint" />
            <mxPoint x="450" y="400" as="targetPoint" />
          </mxGeometry>
        </mxCell>
        <mxCell id="3Iv7wCbymawAUKEkxigc-18" value="" style="endArrow=none;html=1;rounded=0;entryX=1;entryY=1;entryDx=0;entryDy=0;exitX=0;exitY=0;exitDx=0;exitDy=0;" edge="1" parent="1" source="3Iv7wCbymawAUKEkxigc-6" target="3Iv7wCbymawAUKEkxigc-1">
          <mxGeometry width="50" height="50" relative="1" as="geometry">
            <mxPoint x="400" y="450" as="sourcePoint" />
            <mxPoint x="450" y="400" as="targetPoint" />
          </mxGeometry>
        </mxCell>
        <mxCell id="3Iv7wCbymawAUKEkxigc-19" value="" style="endArrow=none;html=1;rounded=0;entryX=0;entryY=0;entryDx=0;entryDy=0;exitX=1;exitY=0;exitDx=0;exitDy=15;exitPerimeter=0;" edge="1" parent="1" source="3Iv7wCbymawAUKEkxigc-2" target="3Iv7wCbymawAUKEkxigc-7">
          <mxGeometry width="50" height="50" relative="1" as="geometry">
            <mxPoint x="400" y="450" as="sourcePoint" />
            <mxPoint x="450" y="400" as="targetPoint" />
            <Array as="points" />
          </mxGeometry>
        </mxCell>
        <mxCell id="3Iv7wCbymawAUKEkxigc-20" value="" style="endArrow=none;html=1;rounded=0;entryX=0;entryY=0.5;entryDx=0;entryDy=0;exitX=1;exitY=0;exitDx=0;exitDy=15;exitPerimeter=0;" edge="1" parent="1" source="3Iv7wCbymawAUKEkxigc-3" target="3Iv7wCbymawAUKEkxigc-7">
          <mxGeometry width="50" height="50" relative="1" as="geometry">
            <mxPoint x="400" y="450" as="sourcePoint" />
            <mxPoint x="450" y="400" as="targetPoint" />
          </mxGeometry>
        </mxCell>
        <mxCell id="3Iv7wCbymawAUKEkxigc-21" value="" style="endArrow=none;html=1;rounded=0;entryX=0;entryY=1;entryDx=0;entryDy=0;exitX=1;exitY=0;exitDx=0;exitDy=15;exitPerimeter=0;" edge="1" parent="1" source="3Iv7wCbymawAUKEkxigc-8" target="3Iv7wCbymawAUKEkxigc-7">
          <mxGeometry width="50" height="50" relative="1" as="geometry">
            <mxPoint x="400" y="450" as="sourcePoint" />
            <mxPoint x="450" y="400" as="targetPoint" />
          </mxGeometry>
        </mxCell>
        <mxCell id="3Iv7wCbymawAUKEkxigc-22" value="" style="endArrow=none;html=1;rounded=0;entryX=0.2;entryY=1.033;entryDx=0;entryDy=0;entryPerimeter=0;exitX=0.5;exitY=0;exitDx=0;exitDy=0;" edge="1" parent="1" source="3Iv7wCbymawAUKEkxigc-13" target="3Iv7wCbymawAUKEkxigc-7">
          <mxGeometry width="50" height="50" relative="1" as="geometry">
            <mxPoint x="160" y="310" as="sourcePoint" />
            <mxPoint x="210" y="260" as="targetPoint" />
          </mxGeometry>
        </mxCell>
        <mxCell id="3Iv7wCbymawAUKEkxigc-23" value="" style="endArrow=none;html=1;rounded=0;entryX=1;entryY=1;entryDx=0;entryDy=0;exitX=0.5;exitY=0;exitDx=0;exitDy=0;" edge="1" parent="1" source="3Iv7wCbymawAUKEkxigc-14" target="3Iv7wCbymawAUKEkxigc-7">
          <mxGeometry width="50" height="50" relative="1" as="geometry">
            <mxPoint x="400" y="450" as="sourcePoint" />
            <mxPoint x="450" y="400" as="targetPoint" />
          </mxGeometry>
        </mxCell>
        <mxCell id="3Iv7wCbymawAUKEkxigc-24" value="" style="endArrow=none;html=1;rounded=0;entryX=0;entryY=1;entryDx=0;entryDy=0;exitX=0.2;exitY=0.033;exitDx=0;exitDy=0;exitPerimeter=0;" edge="1" parent="1" source="3Iv7wCbymawAUKEkxigc-10" target="3Iv7wCbymawAUKEkxigc-6">
          <mxGeometry width="50" height="50" relative="1" as="geometry">
            <mxPoint x="400" y="450" as="sourcePoint" />
            <mxPoint x="450" y="400" as="targetPoint" />
          </mxGeometry>
        </mxCell>
        <mxCell id="3Iv7wCbymawAUKEkxigc-25" value="" style="endArrow=none;html=1;rounded=0;entryX=1.025;entryY=0.65;entryDx=0;entryDy=0;entryPerimeter=0;exitX=0.025;exitY=0.375;exitDx=0;exitDy=0;exitPerimeter=0;" edge="1" parent="1" source="3Iv7wCbymawAUKEkxigc-12" target="3Iv7wCbymawAUKEkxigc-6">
          <mxGeometry width="50" height="50" relative="1" as="geometry">
            <mxPoint x="400" y="450" as="sourcePoint" />
            <mxPoint x="450" y="400" as="targetPoint" />
          </mxGeometry>
        </mxCell>
        <mxCell id="3Iv7wCbymawAUKEkxigc-26" value="" style="endArrow=none;html=1;rounded=0;entryX=0.5;entryY=1;entryDx=0;entryDy=0;exitX=0.222;exitY=0;exitDx=0;exitDy=0;exitPerimeter=0;" edge="1" parent="1" source="3Iv7wCbymawAUKEkxigc-11" target="3Iv7wCbymawAUKEkxigc-6">
          <mxGeometry width="50" height="50" relative="1" as="geometry">
            <mxPoint x="400" y="450" as="sourcePoint" />
            <mxPoint x="450" y="400" as="targetPoint" />
          </mxGeometry>
        </mxCell>
        <mxCell id="3Iv7wCbymawAUKEkxigc-27" value="" style="swimlane;startSize=0;" vertex="1" parent="1">
          <mxGeometry x="190" y="510" width="120" height="120" as="geometry" />
        </mxCell>
        <mxCell id="3Iv7wCbymawAUKEkxigc-28" value="Desktop" style="text;html=1;align=center;verticalAlign=middle;resizable=0;points=[];autosize=1;strokeColor=none;fillColor=none;" vertex="1" parent="3Iv7wCbymawAUKEkxigc-27">
          <mxGeometry x="25" y="45" width="70" height="30" as="geometry" />
        </mxCell>
        <mxCell id="3Iv7wCbymawAUKEkxigc-29" value="" style="endArrow=none;html=1;rounded=0;entryX=0.5;entryY=1;entryDx=0;entryDy=0;exitX=0.442;exitY=0.008;exitDx=0;exitDy=0;exitPerimeter=0;" edge="1" parent="1" source="3Iv7wCbymawAUKEkxigc-27" target="3Iv7wCbymawAUKEkxigc-7">
          <mxGeometry width="50" height="50" relative="1" as="geometry">
            <mxPoint x="400" y="450" as="sourcePoint" />
            <mxPoint x="450" y="400" as="targetPoint" />
          </mxGeometry>
        </mxCell>
      </root>
    </mxGraphModel>
  </diagram>
</mxfile>
